<svg id="Layer_1" data-name="Layer 1" xmlns="http://www.w3.org/2000/svg" viewBox="0 0 1022.34 1020.05"><defs><style>.cls-1{fill:#fff;}.cls-1,.cls-2,.cls-3{stroke:#000;stroke-miterlimit:10;}.cls-2{fill:#f7f7f7;}.cls-3{fill:#8250d2;}</style></defs><path class="cls-1" d="M0-27" transform="translate(-2.16 -4.47)"/><path class="cls-1" d="M0-27" transform="translate(-2.16 -4.47)"/><path class="cls-2" d="M148,893.46c140.81-45.55,346.38-89.12,588-60a1314.1,1314.1,0,0,1,180,34.64Z" transform="translate(-2.16 -4.47)"/><path class="cls-2" d="M174.11,126.16c36,143.41,65.78,351.25,20.44,590.14A1312,1312,0,0,1,147.9,893.4Q161,509.78,174.11,126.16Z" transform="translate(-2.16 -4.47)"/><path class="cls-2" d="M1010.67,916.1A2327.61,2327.61,0,0,0,148,893.46a3283.81,3283.81,0,0,0,12-395.63c-5.74-187.64-25.32-287.46-36-335.68C111.72,106.67,98.3,61.07,88,29Q63.67,478.85,39.33,928.76l84,71.93L1000,928.09Q1005.34,922.11,1010.67,916.1Z" transform="translate(-2.16 -4.47)"/><path class="cls-3" d="M52,5Q27.34,466.54,2.67,928.09l96,95.91L1024,940.08v-36L134.67,976.05l-72-71.94Q66.9,682.89,76,461.87,85.41,233.32,100,5Z" transform="translate(-2.16 -4.47)"/></svg>