<svg xmlns="http://www.w3.org/2000/svg" width="256" height="256"><path fill-opacity=".012" d="M0 128.004v128.004l128.25-.254 128.25-.254.254-127.75L257.008 0H0v128.004m.485.496c0 70.4.119 99.053.265 63.672.146-35.38.146-92.98 0-128C.604 29.153.485 58.1.485 128.5" fill="#8250d2" fill-rule="evenodd"/><path fill-opacity=".024" d="M11.564 1.25C11.071 2.898.951 194.774.246 215.834l-.547 16.334 11.885 11.916c10.634 10.662 12.255 11.919 15.4 11.944 5.014.039 228.413-20.189 229.016-20.737.275-.25.537-6.83.582-14.623.045-7.792-.084-10.036-.286-4.986l-.367 9.183-5.672.709c-4.063.507-8.945.112-17.214-1.395-6.349-1.157-17.168-2.908-24.043-3.891l-12.5-1.788 16.75-.274c14.95-.245 20.154-1.14 15-2.58-26.078-7.288-61.356-11.236-92.604-10.366-29.818.831-59.425 5.345-86.271 13.152C43.119 220.252 38 221.61 38 221.45c0-.159 1.598-5.839 3.551-12.62 13.177-45.748 16.334-93.288 9.387-141.33-2.217-15.33-6.646-36.513-7.912-37.837-.44-.46-1.112 8.315-1.493 19.5-1.311 38.443-2.228 58.326-2.391 51.837-.483-19.192-5.331-51.652-10.86-72.709-2.835-10.796-3.569-15.366-3.381-21.041L25.142 0h-6.603c-4.415 0-6.725.414-6.975 1.25M24.115 22c-.046 1.375.352 3.175.885 4 .862 1.333.96 1.333.885 0-.046-.825-.445-2.625-.885-4l-.801-2.5-.084 2.5m-.772 13.5c.003 4.4.179 6.076.39 3.724.212-2.352.209-5.952-.006-8s-.388-.124-.384 4.276m2.736-5.917c.048 1.165.285 1.402.604.605.289-.722.253-1.585-.079-1.917-.332-.332-.568.258-.525 1.312m1 4c.048 1.165.285 1.402.604.605.289-.722.253-1.585-.079-1.917-.332-.332-.568.258-.525 1.312m1.12 3.917c0 1.1.361 3.125.801 4.5.634 1.98.801 2.084.801.5 0-1.1-.361-3.125-.801-4.5-.634-1.98-.801-2.084-.801-.5M44.158 43c0 1.375.227 1.938.504 1.25.278-.687.278-1.812 0-2.5-.277-.687-.504-.125-.504 1.25m-14 4c0 1.375.227 1.938.504 1.25.278-.687.278-1.812 0-2.5-.277-.687-.504-.125-.504 1.25m-7.809 7c0 4.675.173 6.587.383 4.25.211-2.338.211-6.163 0-8.5-.21-2.338-.383-.425-.383 4.25m21.033 3.5c.002 6.6.164 9.17.359 5.711.196-3.459.195-8.859-.003-12s-.358-.311-.356 6.289m1.776-9.5c0 1.375.227 1.938.504 1.25.278-.687.278-1.812 0-2.5-.277-.687-.504-.125-.504 1.25m-13.963 4.5c.02 1.65.244 2.204.498 1.231.254-.973.237-2.323-.037-3-.274-.677-.481.119-.461 1.769m14.884 1.083c.048 1.165.285 1.402.604.605.289-.722.253-1.585-.079-1.917-.332-.332-.568.258-.525 1.312M32.195 58.5c.02 1.65.244 2.204.498 1.231.254-.973.237-2.323-.037-3-.274-.677-.481.119-.461 1.769m14.884 1.083c.048 1.165.285 1.402.604.605.289-.722.253-1.585-.079-1.917-.332-.332-.568.258-.525 1.312M21.355 72.5c-.003 4.95.166 7.101.376 4.78.209-2.321.212-6.371.005-9-.206-2.629-.378-.73-.381 4.22M33.158 66c0 1.375.227 1.938.504 1.25.278-.687.278-1.812 0-2.5-.277-.687-.504-.125-.504 1.25m15 0c0 1.375.227 1.938.504 1.25.278-.687.278-1.812 0-2.5-.277-.687-.504-.125-.504 1.25m-13.963 7.5c.02 1.65.244 2.204.498 1.231.254-.973.237-2.323-.037-3-.274-.677-.481.119-.461 1.769m14.963-.5c0 1.375.227 1.938.504 1.25.278-.687.278-1.812 0-2.5-.277-.687-.504-.125-.504 1.25m-6.776 13.5c.002 6.6.164 9.17.359 5.711.196-3.459.195-8.859-.003-12s-.358-.311-.356 6.289m7.85-5.5c0 1.925.206 2.713.457 1.75.252-.963.252-2.537 0-3.5-.251-.963-.457-.175-.457 1.75m-15 2c0 1.925.206 2.713.457 1.75.252-.963.252-2.537 0-3.5-.251-.963-.457-.175-.457 1.75M20.343 95.5c.003 4.4.179 6.076.39 3.724.212-2.352.209-5.952-.006-8s-.388-.124-.384 4.276M51.272 93c0 2.475.195 3.487.434 2.25.238-1.237.238-3.263 0-4.5-.239-1.237-.434-.225-.434 2.25m-15.02 2.5c.011 2.2.216 2.982.455 1.738.239-1.244.23-3.044-.02-4s-.446.062-.435 2.262m5.126 19.5c0 6.325.163 8.912.361 5.75.198-3.163.198-8.338 0-11.5-.198-3.163-.361-.575-.361 5.75m11.007 2c0 6.875.16 9.688.355 6.25.196-3.437.196-9.062 0-12.5-.195-3.437-.355-.625-.355 6.25M37.3 112c0 3.025.187 4.263.416 2.75.229-1.513.229-3.987 0-5.5s-.416-.275-.416 2.75m-17.945 6.5c-.003 4.95.166 7.101.376 4.78.209-2.321.212-6.371.005-9-.206-2.629-.378-.73-.381 4.22M38.397 148c0 7.975.156 11.238.346 7.25.189-3.988.189-10.512 0-14.5-.19-3.988-.346-.725-.346 7.25m3.003.5c.001 8.25.156 11.492.344 7.204.188-4.287.187-11.037-.002-15-.19-3.962-.343-.454-.342 7.796m-23.035-3c.003 5.5.171 7.622.373 4.716.203-2.905.201-7.405-.004-10-.206-2.594-.371-.216-.369 5.284m32.907-4.5c0 2.475.195 3.488.434 2.25.238-1.238.238-3.262 0-4.5-.239-1.238-.434-.225-.434 2.25m-1.077 11.5c.02 1.65.244 2.204.498 1.231.254-.973.237-2.323-.037-3-.274-.677-.481.119-.461 1.769m-1 8c.02 1.65.244 2.204.498 1.231.254-.973.237-2.323-.037-3-.274-.677-.481.119-.461 1.769m-31.813 16c.002 6.6.164 9.17.359 5.711.196-3.459.195-8.859-.003-12s-.358-.311-.356 6.289m30.697-8.917c.048 1.165.285 1.402.604.605.289-.722.253-1.585-.079-1.917-.332-.332-.568.258-.525 1.312M40.37 181c0 5.775.165 8.137.367 5.25.202-2.887.202-7.613 0-10.5-.202-2.887-.367-.525-.367 5.25m6.709-7.417c.048 1.165.285 1.402.604.605.289-.722.253-1.585-.079-1.917-.332-.332-.568.258-.525 1.312M46.158 179c0 1.375.227 1.938.504 1.25.278-.687.278-1.812 0-2.5-.277-.687-.504-.125-.504 1.25m-8.83 5.5c.005 3.85.185 5.302.402 3.228.216-2.075.213-5.225-.008-7-.221-1.776-.398-.078-.394 3.772m7.83-.5c0 1.375.227 1.938.504 1.25.278-.687.278-1.812 0-2.5-.277-.687-.504-.125-.504 1.25m-1.602 6.556c-.377 2.006-.485 3.848-.241 4.093.245.244.753-1.198 1.129-3.205.377-2.006.485-3.848.241-4.093-.245-.244-.753 1.198-1.129 3.205M39.21 201.5c-.048 4.663.235 7.166.679 6 .42-1.1.457-4.7.084-8l-.679-6-.084 8m2.869-3.917c.048 1.165.285 1.402.604.605.289-.722.253-1.585-.079-1.917-.332-.332-.568.258-.525 1.312m-5.793 4.917c.008 2.75.202 3.756.432 2.236.229-1.52.223-3.77-.014-5-.237-1.23-.425.014-.418 2.764m4.793-.917c.048 1.165.285 1.402.604.605.289-.722.253-1.585-.079-1.917-.332-.332-.568.258-.525 1.312m-24.863 11.438L16 225.542l8.858 8.817c7.195 7.161 9.308 8.732 11.25 8.365l2.392-.452-2.522-.136c-1.731-.093-5.093-2.723-10.721-8.386l-8.199-8.25-.313-12.5-.313-12.5-.216 12.521M.392 220c0 7.425.157 10.463.35 6.75.192-3.713.192-9.787 0-13.5-.193-3.713-.35-.675-.35 6.75m127.384-12.267c2.352.212 5.952.209 8-.006s.124-.388-4.276-.384c-4.4.003-6.076.179-3.724.39m25.474-.005c2.063.216 5.438.216 7.5 0 2.063-.215.375-.392-3.75-.392s-5.812.177-3.75.392m-40 .961c.963.252 2.537.252 3.5 0 .963-.251.175-.457-1.75-.457s-2.713.206-1.75.457m58.512.018c1.244.239 3.044.23 4-.02s-.062-.446-2.262-.435c-2.2.011-2.982.216-1.738.455m-67.493.986c.973.254 2.323.237 3-.037.677-.274-.119-.481-1.769-.461-1.65.02-2.204.244-1.231.498m78 0c.973.254 2.323.237 3-.037.677-.274-.119-.481-1.769-.461-1.65.02-2.204.244-1.231.498m-144.19 1.89c.048 1.165.285 1.402.604.605.289-.722.253-1.585-.079-1.917-.332-.332-.568.258-.525 1.312m57.171-.894c.963.252 2.537.252 3.5 0 .963-.251.175-.457-1.75-.457s-2.713.206-1.75.457m95.019.004c.973.254 2.323.237 3-.037.677-.274-.119-.481-1.769-.461-1.65.02-2.204.244-1.231.498m-101 1c.973.254 2.323.237 3-.037.677-.274-.119-.481-1.769-.461-1.65.02-2.204.244-1.231.498m107 0c.973.254 2.323.237 3-.037.677-.274-.119-.481-1.769-.461-1.65.02-2.204.244-1.231.498m-113 1c.973.254 2.323.237 3-.037.677-.274-.119-.481-1.769-.461-1.65.02-2.204.244-1.231.498m119 0c.973.254 2.323.237 3-.037.677-.274-.119-.481-1.769-.461-1.65.02-2.204.244-1.231.498M35.286 217.5c.008 2.75.202 3.756.432 2.236.229-1.52.223-3.77-.014-5-.237-1.23-.425.014-.418 2.764m42.464-3.838c.688.278 1.813.278 2.5 0 .688-.277.125-.504-1.25-.504s-1.937.227-1.25.504m130 0c.688.278 1.813.278 2.5 0 .688-.277.125-.504-1.25-.504s-1.937.227-1.25.504m-133.937 1.021c.721.289 1.584.253 1.916-.079.332-.332-.258-.568-1.312-.525-1.165.048-1.402.285-.604.604m41.437.065c8.112.168 21.387.168 29.5 0 8.112-.168 1.475-.306-14.75-.306s-22.863.138-14.75.306m96.75.207c0 .575 1.875 1.045 4.167 1.045 4.912 0 4.772-.474-.417-1.413-2.374-.429-3.75-.294-3.75.368m-143.25.707c.688.278 1.813.278 2.5 0 .688-.277.125-.504-1.25-.504s-1.937.227-1.25.504m19 .061c1.787.222 4.713.222 6.5 0 1.787-.221.325-.403-3.25-.403s-5.037.182-3.25.403m77 0c1.787.222 4.713.222 6.5 0 1.787-.221.325-.403-3.25-.403s-5.037.182-3.25.403m-100.213 1.336c.319.518 2.204.941 4.189.941 4.426 0 4.023-.524-.998-1.299-2.25-.347-3.538-.203-3.191.358m11.727-.341c1.52.229 3.77.223 5-.014 1.23-.237-.014-.425-2.764-.418-2.75.008-3.756.202-2.236.432m106.986.025c4.262.188 11.238.188 15.5 0 4.262-.187.775-.341-7.75-.341s-12.012.154-7.75.341M58 218c-2.06.66-2.148.816-.5.885 1.1.046 2.675-.352 3.5-.885 1.752-1.132.536-1.132-3 0m46.75-.268c2.337.211 6.162.211 8.5 0 2.337-.21.425-.383-4.25-.383s-6.588.173-4.25.383m41.53.004c2.629.207 6.679.204 9-.005 2.321-.21.17-.379-4.78-.376-4.95.003-6.849.175-4.22.381m-59.53.97c1.237.238 3.263.238 4.5 0 1.237-.239.225-.434-2.25-.434s-3.487.195-2.25.434m81 0c1.238.238 3.262.238 4.5 0 1.238-.239.225-.434-2.25-.434s-3.488.195-2.25.434m-114.937.977c.721.289 1.584.253 1.916-.079.332-.332-.258-.568-1.312-.525-1.165.048-1.402.285-.604.604m22.437.006c.963.252 2.537.252 3.5 0 .963-.251.175-.457-1.75-.457s-2.713.206-1.75.457m106 .027c1.512.229 3.988.229 5.5 0s.275-.416-2.75-.416-4.262.187-2.75.416m-116 .973c.963.252 2.537.252 3.5 0 .963-.251.175-.457-1.75-.457s-2.713.206-1.75.457m126.019.004c.973.254 2.323.237 3-.037.677-.274-.119-.481-1.769-.461-1.65.02-2.204.244-1.231.498m-134 1c.973.254 2.323.237 3-.037.677-.274-.119-.481-1.769-.461-1.65.02-2.204.244-1.231.498m142.481-.031c.688.278 1.813.278 2.5 0 .688-.277.125-.504-1.25-.504s-1.937.227-1.25.504m-150.481 1.031c.973.254 2.323.237 3-.037.677-.274-.119-.481-1.769-.461-1.65.02-2.204.244-1.231.498m158 0c.973.254 2.323.237 3-.037.677-.274-.119-.481-1.769-.461-1.65.02-2.204.244-1.231.498m-166.019.996c.962.252 2.538.252 3.5 0 .962-.251.175-.457-1.75-.457s-2.712.206-1.75.457m173 0c.963.252 2.537.252 3.5 0 .963-.251.175-.457-1.75-.457s-2.713.206-1.75.457m-177.437.994c.721.289 1.584.253 1.916-.079.332-.332-.258-.568-1.312-.525-1.165.048-1.402.285-.604.604m184.456.01c.973.254 2.323.237 3-.037.677-.274-.119-.481-1.769-.461-1.65.02-2.204.244-1.231.498m5.183 1.23c.366.592 2.739 1.077 5.274 1.077 5.689 0 5.299-.522-1.083-1.449-3.373-.49-4.653-.377-4.191.372m-11.202 1.793c1.512.229 3.988.229 5.5 0s.275-.416-2.75-.416-4.262.187-2.75.416m-12 1c1.512.229 3.988.229 5.5 0s.275-.416-2.75-.416-4.262.187-2.75.416m-12 1c1.512.229 3.988.229 5.5 0s.275-.416-2.75-.416-4.262.187-2.75.416m-12 1c1.512.229 3.988.229 5.5 0s.275-.416-2.75-.416-4.262.187-2.75.416m-12.482 1.009c1.797.222 4.497.218 6-.01 1.503-.229.032-.411-3.268-.405-3.3.005-4.529.192-2.732.415m-12.518.991c1.512.229 3.988.229 5.5 0s.275-.416-2.75-.416-4.262.187-2.75.416m-12 1c1.512.229 3.988.229 5.5 0s.275-.416-2.75-.416-4.262.187-2.75.416m-12 1c1.512.229 3.988.229 5.5 0s.275-.416-2.75-.416-4.262.187-2.75.416m-12.986 1.002c1.52.229 3.77.223 5-.014 1.23-.237-.014-.425-2.764-.418-2.75.008-3.756.202-2.236.432m-12 1c1.52.229 3.77.223 5-.014 1.23-.237-.014-.425-2.764-.418-2.75.008-3.756.202-2.236.432m-12.514.988c1.237.238 3.263.238 4.5 0 1.237-.239.225-.434-2.25-.434s-3.487.195-2.25.434m-12 1c1.237.238 3.263.238 4.5 0 1.237-.239.225-.434-2.25-.434s-3.487.195-2.25.434m-12.486 1.012c1.52.229 3.77.223 5-.014 1.23-.237-.014-.425-2.764-.418-2.75.008-3.756.202-2.236.432m-13 1c1.52.229 3.77.223 5-.014 1.23-.237-.014-.425-2.764-.418-2.75.008-3.756.202-2.236.432m-13.014.998c1.513.229 3.987.229 5.5 0s.275-.416-2.75-.416-4.263.187-2.75.416" fill="#8250d2" fill-rule="evenodd"/><path fill-opacity=".276" d="M11.596 4.25C10.956 9.405 1.023 197.58.312 218l-.504 14.5 12.072 11.96 12.072 11.961 115.64-10.451 115.64-10.45.884-2.325c.486-1.279.792-7.358.68-13.51-.181-9.976-.239-10.304-.538-3.042-.306 7.419-.532 8.197-2.547 8.737-4.289 1.15-11.354.589-29.189-2.316-9.912-1.615-20.722-3.357-24.022-3.871-5.505-.859-4.886-.953 7.5-1.139 7.425-.111 15.525-.509 18-.883 4.436-.671 4.335-.719-7.162-3.435-54.266-12.815-116.357-10.873-170.961 5.348C42.48 220.688 37.844 222 37.576 222c-.268 0 .193-1.913 1.024-4.25 2.468-6.939 8.152-29.462 10.319-40.887 6.215-32.764 6.813-75.274 1.568-111.363C48.673 53.021 43.786 30 42.951 30c-.343 0-1.2 18.112-1.905 40.25-.704 22.138-1.384 40.368-1.509 40.512-.126.145-.518-5.122-.872-11.703-1.426-26.525-6.181-56.642-12.243-77.542-2.139-7.374-2.485-10.104-1.934-15.25L25.159 0H12.123l-.527 4.25M23.648 23.5c-1.74 15.718-6.362 124.652-7.255 171l-.616 32 8.531 8.398 8.531 8.398 88.831-7.183c126.898-10.262 117.468-9.403 112.83-10.272-39.928-7.479-91.988-11.028-131-8.931-19.389 1.042-48.331 3.865-61.5 5.998-3.025.489-5.664.735-5.864.544-.2-.19.171-6.782.824-14.649 1.835-22.106 2.475-79.44 1.132-101.303-2.034-33.092-5.659-58.756-11.44-81l-2.339-9-.665 6m19.425 21c-.082 4.95-.588 19.125-1.124 31.5-.537 12.375-1.427 46.125-1.977 75s-1.218 55.2-1.484 58.5l-.484 6 2.049-6.5c10.184-32.31 15.178-81.856 12.009-119.134-1.244-14.63-4.951-38.929-7.455-48.866l-1.386-5.5-.148 9M129.5 206.674c-21.401 1.055-45.963 4.661-67.808 9.954-15.292 3.705-18.495 5.032-8.133 3.369 25.339-4.069 73.477-5.872 107.941-4.043 19.612 1.041 29.218 1.148 57.719.648 15.442-.27-28.698-7.857-55.719-9.577-15.252-.97-20.367-1.023-34-.351M.382 221.5c.002 6.6.164 9.17.359 5.711.196-3.459.195-8.859-.003-12S.38 214.9.382 221.5" fill="#8250d2" fill-rule="evenodd"/><path fill-opacity=".433" d="M12 1.885C12 3.611 3.64 160.727.881 210.848l-1.175 21.348 11.948 11.948 11.948 11.948 115.863-10.544c63.725-5.798 116.127-10.806 116.449-11.128.322-.322.634-4.261.692-8.753.058-4.492-.08-6.255-.305-3.917l-.411 4.25-5.195.151c-2.857.083-6.545.245-8.195.361-5.388.377-200.885 16.403-205.153 16.817-4.076.396-4.323.233-13.304-8.786l-9.151-9.189 1.066-37.427C17.599 130.338 20.511 63.11 23.016 25c.524-7.975.96-16.862.969-19.75L24 0h-6c-5.211 0-6 .248-6 1.885M39.31 121.5c.005 3.3.192 4.529.415 2.732.222-1.797.218-4.497-.01-6-.229-1.503-.411-.032-.405 3.268m187.503 95.183c.721.289 1.584.253 1.916-.079.332-.332-.258-.568-1.312-.525-1.165.048-1.402.285-.604.604M.343 225.5c.003 4.4.179 6.076.39 3.724.212-2.352.209-5.952-.006-8S.339 221.1.343 225.5m186.926-6.807c.973.254 2.323.237 3-.037.677-.274-.119-.481-1.769-.461-1.65.02-2.204.244-1.231.498m-148.456 3.99c.721.289 1.584.253 1.916-.079.332-.332-.258-.568-1.312-.525-1.165.048-1.402.285-.604.604" fill="#8250d2" fill-rule="evenodd"/></svg>